<?xml version="1.0" standalone="no"?><!DOCTYPE svg PUBLIC "-//W3C//DTD SVG 1.1//EN" "http://www.w3.org/Graphics/SVG/1.1/DTD/svg11.dtd"><svg t="1608973192610" class="icon" viewBox="0 0 1024 1024" version="1.1" xmlns="http://www.w3.org/2000/svg" p-id="3578" xmlns:xlink="http://www.w3.org/1999/xlink" width="200" height="200"><defs><style type="text/css"></style></defs><path d="M491.965642 929.524544c-228.876554 0-415.092279-186.215725-415.092279-415.092279S263.089088 99.339985 491.965642 99.339985s415.092279 186.215725 415.092279 415.092279S720.842196 929.524544 491.965642 929.524544zM491.965642 159.817025c-195.5274 0-354.615239 159.087839-354.615239 354.615239s159.087839 354.615239 354.615239 354.615239 354.615239-159.087839 354.615239-354.615239S687.493042 159.817025 491.965642 159.817025z" p-id="3579"></path><path d="M339.473038 686.33562c-1.062697 0-2.126381-0.059203-3.208813-0.17761-7.55926-0.886074-13.800262-4.547791-18.111241-10.611184-6.417625-9.153799-5.728895-16.989341-4.015949-21.930833 2.225053-6.43736 7.618463-11.871225 16.516702-16.654843 4.330713-2.460879 8.682147-5.590754 12.638893-9.153799 3.937012-3.543311 7.362903-7.422106 10.197749-11.497259 2.795377-4.055418 5.040165-8.288446 6.674172-12.481018 1.456398-3.740655 2.16585-7.44184 2.16585-11.339383l0-109.654166-25.946783 0c-8.85877 0-15.454005-2.520082-19.588361-7.501044-3.582779-4.27151-5.414131-10.15828-5.414131-17.481714 0-7.422106 1.772149-13.426296 5.256256-17.816212 4.094887-5.216787 10.749325-7.87501 19.745249-7.87501l37.679867 0c6.516297 0 11.89096 0.591045 16.419017 1.811617 5.984455 1.594539 10.866745 4.666198 14.449524 9.115317 3.228547 3.996215 5.4536 9.115317 6.634704 15.237913 0.965012 4.902024 1.436664 11.044354 1.436664 18.702286l0 113.375086c0 0.945278-0.019734 1.889568-0.059203 2.795377 4.350447 6.536032 8.701882 11.969897 12.933923 16.221673 4.606995 4.58726 9.705376 8.268712 15.17871 10.906213 5.57102 2.696705 11.989632 4.547791 19.076253 5.531551 7.855276 1.102166 17.147216 1.653742 27.639994 1.653742l127.293755 0c-2.16585-3.406157-4.015949-7.598729-5.57102-12.619159-1.062697-2.894049-2.243801-6.496563-3.366688-10.237217-0.078938-0.275295-0.17761-0.571311-0.25556-0.846606l-140.995346 9.469549c-17.855681 1.653742-30.47484-1.004481-38.389319-8.229243-5.473334-4.980961-8.346662-11.851491-8.346662-19.88339 0-4.193559 0.886074-8.721616 2.676971-13.465764 1.869834-4.921758 5.000696-9.72511 9.311674-14.332104 5.807832-6.693907 11.634413-13.819997 17.16695-21.044759 5.551285-7.224762 10.84701-14.666602 15.906909-22.344269 5.118115-7.717135 10.079342-15.827972 14.981366-24.332509 1.889568-3.307485 3.799858-6.732389 5.728895-10.296421l-47.050745 0c-10.749325 0-16.477233-4.58726-19.410751-8.445334-3.445625-4.468854-5.236522-10.178014-5.236522-16.890669 0-7.264231 1.968506-13.151001 5.88677-17.501448 4.193559-4.724414 10.512512-7.145824 18.761489-7.145824l199.523615 0c8.091102 0 14.411042 2.322738 18.741755 6.909998 4.15409 4.468854 6.241002 10.41384 6.241002 17.737274 0 6.771858-1.889568 12.540221-5.630223 17.186685-2.992721 3.72092-8.799567 8.150305-19.351548 8.150305l-31.695412 0c2.303004 2.815111 4.547791 6.280471 6.791592 10.453309 4.823086 9.410346 9.056114 18.092493 12.854985 26.261546 3.780123 8.150305 7.44184 16.438751 10.985151 24.805148 3.523576 8.386131 7.087608 17.088013 10.59145 26.144127 3.523576 8.996911 7.264231 19.036784 11.260446 30.061404 3.523576 10.217483 4.310979 17.895149 2.559551 24.371978-0.492373 1.909303-1.436664 4.468854-3.28775 7.087608 4.488588 1.161369 8.051633 3.307485 10.670387 6.417625 3.602514 4.310979 5.433866 10.217483 5.433866 17.540917 0 8.386131-1.909303 14.508727-5.88677 18.741755-4.233028 4.468854-10.473043 6.614969-19.115722 6.614969L487.772083 677.851803c-12.421815 0-23.564841-0.551576-33.113328-1.653742-10.000405-1.141635-19.293331-3.327219-27.639994-6.457094-8.484803-3.169344-16.477233-7.618463-23.742451-13.248686-3.228547-2.520082-6.457094-5.335194-9.685641-8.445334-2.972987 4.055418-6.318953 7.894745-10.020139 11.516993-7.44184 7.343168-16.654843 14.607399-27.32523 21.556866C350.85189 684.584192 345.241401 686.33562 339.473038 686.33562zM538.622686 479.351417c-5.492082 10.138545-10.59145 19.410751-15.335598 27.856085-5.847301 10.355624-11.477524 19.764983-16.949872 28.30899-5.433866 8.524272-10.749325 16.496968-15.966112 23.958542-0.571311 0.807137-1.141635 1.614274-1.693211 2.42141 15.099772-1.102166 30.672184-2.067178 46.421218-2.913783 17.796477-0.984746 35.436067-2.106647 52.898046-3.406157-2.007975-4.547791-4.114621-9.115317-6.299219-13.701591-4.666198-9.744844-9.843516-19.764983-15.532942-30.021935-4.70468-8.721616-6.457094-15.572411-5.610489-21.675273 0.591045-4.114621 2.205319-7.796073 4.724414-10.827276L538.622686 479.351417 538.622686 479.351417 538.622686 479.351417zM397.765481 429.858541c-0.531842 0-1.082432-0.019734-1.614274-0.059203-8.662413-0.68873-15.315864-7.598729-19.548892-12.717831l-9.961923-10.59145c-3.543311-3.780123-7.145824-7.382637-10.787807-10.807541-3.701186-3.464373-7.402372-6.752123-11.083823-9.902719-3.523576-3.012455-6.831061-5.590754-9.823782-7.73687-5.867036-4.291244-9.764579-10.000405-11.359118-16.575905-1.830365-7.618463 0.196357-15.335598 5.70916-21.734476 5.118115-5.13785 10.551981-7.835542 16.379548-8.504538 6.338688-0.68873 13.327624 1.8501 21.143431 7.87501 7.067874 5.590754 14.824478 12.32413 23.329015 20.257357 8.405866 7.796073 16.379548 15.592146 23.998011 23.4267 6.358422 6.732389 9.804047 12.914188 10.630919 18.997315 0.708465 5.511817-0.373967 13.564436-9.548487 21.103962l-4.134356 2.736174C406.643985 428.441611 402.175131 429.858541 397.765481 429.858541zM620.341829 393.891619 452.553095 393.891619c-10.749325 0-16.477233-4.58726-19.410751-8.445334-3.464373-4.528057-5.236522-10.237217-5.236522-16.890669 0-7.264231 1.968506-13.151001 5.867036-17.501448 4.213293-4.724414 10.532247-7.145824 18.781224-7.145824l167.788734 0c8.051633 0 14.351839 2.303004 18.702286 6.87053 4.193559 4.449119 6.299219 10.41384 6.299219 17.776743 0 6.752123-1.889568 12.520487-5.649957 17.186685C636.642439 389.481968 630.835594 393.891619 620.341829 393.891619z" p-id="3580"></path></svg>