<?xml version="1.0" standalone="no"?><!DOCTYPE svg PUBLIC "-//W3C//DTD SVG 1.1//EN" "http://www.w3.org/Graphics/SVG/1.1/DTD/svg11.dtd"><svg t="1608860386539" class="icon" viewBox="0 0 1024 1024" version="1.1" xmlns="http://www.w3.org/2000/svg" p-id="3259" xmlns:xlink="http://www.w3.org/1999/xlink" width="200" height="200"><defs><style type="text/css"></style></defs><path d="M917.333 853.333v64H106.667v-64h810.666zM512 213.333c221.452 0 401.426 177.593 405.27 398.127l0.063 7.207v170.666H106.667V618.667c0-223.86 181.474-405.334 405.333-405.334z m0 64c-186.269 0-337.69 149.204-341.269 334.616l-0.064 6.718v106.666h682.666V618.667c0-183.998-145.586-333.992-327.849-341.072l-6.767-0.197-6.717-0.065zM512 384v64c-92.478 0-167.777 73.554-170.585 165.35l-0.082 5.317h-64c0-127.546 101.755-231.325 228.514-234.588L512 384z m85.333-277.333v64H426.667v-64h170.666z" p-id="3260"></path></svg>