<?xml version="1.0" standalone="no"?><!DOCTYPE svg PUBLIC "-//W3C//DTD SVG 1.1//EN" "http://www.w3.org/Graphics/SVG/1.1/DTD/svg11.dtd"><svg t="1608860360694" class="icon" viewBox="0 0 1024 1024" version="1.1" xmlns="http://www.w3.org/2000/svg" p-id="2273" xmlns:xlink="http://www.w3.org/1999/xlink" width="200" height="200"><defs><style type="text/css"></style></defs><path d="M660.48 210.816c86.912 0 157.696 70.656 157.696 157.696 0 28.672-7.68 55.68-21.12 78.848l34.304 43.52c24.832-34.432 39.424-76.8 39.424-122.368 0-115.968-94.336-210.304-210.304-210.304-75.136 0-141.184 39.552-178.432 99.072l35.328 44.928a157.568 157.568 0 0 1 143.104-91.392z" p-id="2274"></path><path d="M802.304 519.936L768 476.416l-66.176-84.096c-9.6-16.512-33.536-16.512-43.136 0l-61.184 77.568-109.184-138.624-35.328-44.928-17.152-21.76c-14.848-25.728-51.968-25.728-66.688 0L130.56 567.552c-14.848 25.728 3.712 57.856 33.408 57.856H834.304c19.2 0 31.232-20.736 21.632-37.376l-53.632-68.096zM688.384 686.72c0-12.16-9.856-21.888-21.888-21.888H188.8a21.888 21.888 0 1 0 0 43.776h477.568c12.16 0 22.016-9.728 22.016-21.888zM754.048 743.68H245.76a21.888 21.888 0 1 0 0 43.776h508.288a21.888 21.888 0 1 0 0-43.776zM797.824 664.832h-61.312a21.888 21.888 0 1 0 0 43.776h61.312a21.888 21.888 0 1 0 0-43.776z" p-id="2275"></path></svg>