<?xml version="1.0" standalone="no"?><!DOCTYPE svg PUBLIC "-//W3C//DTD SVG 1.1//EN" "http://www.w3.org/Graphics/SVG/1.1/DTD/svg11.dtd"><svg t="1609210552830" class="icon" viewBox="0 0 1024 1024" version="1.1" xmlns="http://www.w3.org/2000/svg" p-id="1929" xmlns:xlink="http://www.w3.org/1999/xlink" width="200" height="200"><defs><style type="text/css"></style></defs><path d="M368.541169 690.599677l99.438757 0L467.979926 574.831001l-99.438757 0L368.541169 690.599677 368.541169 690.599677zM661.046083 690.599677l99.437733 0L760.483816 574.831001l-99.437733 0L661.046083 690.599677 661.046083 690.599677zM842.66349 354.479407l21.838378 157.492964 0 28.876678-26.278503 0 0 112.399953c-12.044314 0.677429-23.391756 3.992941-33.461089 9.360182L804.762275 540.849048 652.48408 540.849048l-88.938612-111.681592-88.926332 111.681592L322.345034 540.849048l0 220.332151 193.449897 0L515.794931 574.831001l95.512331 0 0 186.350199 123.099642 0c-0.020466-0.638543-0.026606-1.261737-0.026606-1.902326 0-30.889521 24.495904-56.054667 55.125505-57.130162 14.614859-21.35947 39.188534-35.395138 67.039859-35.395138 30.957059 0 57.856709 17.331737 71.541383 42.817178 1.318018-0.058328 2.638083-0.113587 3.983731-0.113587 31.344892 0 57.515948 22.190395 63.659879 51.725058l17.405415 0 0 33.701566L83.332429 794.883789l0-33.701566 56.095599 0 20.044522-12.579503 14.900362-33.924647 5.424546-29.27372-4.294816-10.379395c-36.035728 0.130983-79.038124 0.603751-92.543719-36.656875-3.852748-10.623965-11.057847-15.898085-26.861788-28.236088-30.159904-23.527856-32.100092-40.329521-41.130769-74.592882-3.108804-11.754718-4.333702-22.417569-3.137457-29.838585 5.510504-29.309536-1.082658-25.693172-5.320169-49.314149-10.077519-47.901986 14.654768-111.042026 44.567032-142.40636 13.941524-14.597463 20.937868-17.065677 30.374798-25.88146 2.864234-2.674922 5.208629-7.439436 14.900362-22.169929 27.832905-21.51092 69.461001-43.720757 115.998921-44.700061 30.449499-0.639566 58.561767 12.754488 83.756589 24.187889 22.74605 12.394285 12.376888 9.361205 43.031049 14.220886 43.468001 6.895037 80.141248 40.235376 100.485599 75.026764L284.442796 334.664106 267.178597 334.664106l-24.40176 175.934988 0 50.069349 26.266224 0 0 114.374934c-8.399297-1.598404-17.715477-3.858888-25.787316-5.536087l-9.060353 0.660032-0.75213 6.630001 0.283456 20.568455 8.286734 40.934295 18.346857 22.884197 28.507264 0L288.867572 540.849048l-26.266224 0 0-28.876678 21.841447-157.492964C466.481805 354.479407 457.600531 354.479407 842.66349 354.479407z" p-id="1930"></path></svg>